{
  "asset": {
    "version": "2.0",
    "generator": "THREE.GLTFExporter r166"
  },
  "scenes": [
    {
      "name": "AuxScene",
      "nodes": [
        6
      ]
    }
  ],
  "scene": 0,
  "nodes": [
    {
      "translation": [
        -187.30999755859375,
        -186.75,
        -25
      ],
      "extras": {
        "isHole": false
      },
      "mesh": 0
    },
    {
      "children": [
        0
      ]
    },
    {
      "rotation": [
        0,
        0.3826834323650898,
        0,
        0.9238795325112867
      ],
      "scale": [
        0.15625,
        -0.15625,
        0.15625
      ],
      "children": [
        1
      ]
    },
    {
      "children": [
        2
      ]
    },
    {
      "translation": [
        -14.655246889274796,
        20.82304358482361,
        14.65524689256752
      ],
      "children": [
        3
      ]
    },
    {
      "children": [
        4
      ]
    },
    {
      "children": [
        5
      ]
    }
  ],
  "bufferViews": [
    {
      "buffer": 0,
      "byteOffset": 0,
      "byteLength": 19296,
      "target": 34962,
      "byteStride": 12
    },
    {
      "buffer": 0,
      "byteOffset": 19296,
      "byteLength": 12864,
      "target": 34962,
      "byteStride": 8
    },
    {
      "buffer": 0,
      "byteOffset": 32160,
      "byteLength": 19296,
      "target": 34962,
      "byteStride": 12
    }
  ],
  "buffers": [
    {
      "byteLength": 51456,
      "uri": "data:application/octet-stream;base64,"
    }
  ],
  "accessors": [
    {
      "bufferView": 0,
      "componentType": 5126,
      "count": 1608,
      "max": [
        507.8104553222656,
        507.36236572265625,
        51
      ],
      "min": [
        131.98289489746094,
        132.67259216308594,
        -1
      ],
      "type": "VEC3"
    },
    {
      "bufferView": 1,
      "componentType": 5126,
      "count": 1608,
      "max": [
        507.8104553222656,
        506.75
      ],
      "min": [
        131.98289489746094,
        -50
      ],
      "type": "VEC2"
    },
    {
      "bufferView": 2,
      "componentType": 5126,
      "count": 1608,
      "max": [
        1,
        0.8678268790245056,
        1
      ],
      "min": [
        -0.9999995827674866,
        -0.8665693998336792,
        -1
      ],
      "type": "VEC3"
    }
  ],
  "materials": [
    {
      "pbrMetallicRoughness": {
        "baseColorFactor": [
          0.9473065367320066,
          0.9046611743890203,
          0.8796223968851662,
          1
        ],
        "metallicFactor": 0.9,
        "roughnessFactor": 0.2
      },
      "extras": {
        "isHole": false
      }
    }
  ],
  "meshes": [
    {
      "primitives": [
        {
          "mode": 4,
          "attributes": {
            "POSITION": 0,
            "TEXCOORD_0": 1,
            "NORMAL": 2
          },
          "material": 0
        }
      ]
    }
  ]
}